# xmcd CD database file
#
# Track frame offsets:
#	150
#	8972
#	35007
#	62457
#	92047
#	113322
#	140690
#	179902
#
# Disc length: 2853 seconds
#
# Revision: 0
# Processed by: cddbd v1.5.1PL0 Copyright (c) Steve Scherf et al.
# Submitted via: CDex 1.51
#
DISCID=680b2308
DTITLE=Jim Ridl Trio - Five Minutes to Madness and Joy
DYEAR=1999
DGENRE=Jazz
TTITLE0=Five Minutes to Madness and Joy - Jim Ridl
TTITLE1=Sylvester's Rag
TTITLE2=Oleo
TTITLE3=Adagio for John Coltrane (Moment's Notice)
TTITLE4=Love Supreme
TTITLE5=Paint Your Rhythm
TTITLE6=Carry Me Home
TTITLE7=Five Minutes to Madness and Joy
EXTD=YEAR: 1999
EXTT0=
EXTT1=
EXTT2=
EXTT3=
EXTT4=
EXTT5=
EXTT6=
EXTT7=
PLAYORDER=
